<svg width="108" height="108" viewBox="0 0 108 108" fill="none" xmlns="http://www.w3.org/2000/svg">
<path d="M84.86 53.2199C84.86 55.1999 84.38 57.5999 83.89 59.6899V59.7099V59.7199C83.29 62.1599 81.89 64.3299 79.91 65.8799C77.93 67.4199 75.49 68.2599 72.98 68.2599H72.84C66.49 68.2599 62.49 63.0499 62.49 57.2099V48.8499L57.76 55.8599L57.5 56.0699C56.52 56.8899 55.28 57.3399 54 57.3399C52.72 57.3399 51.48 56.8899 50.5 56.0699L50.24 55.8699L45.37 48.7599V65.9999H40.72V47.2299C40.72 43.6799 44.93 41.6099 47.73 44.0999L47.94 44.2899L53.64 52.6099C53.75 52.6599 53.87 52.6899 53.99 52.6899C54.12 52.6899 54.23 52.6599 54.34 52.6099L59.93 44.3299L60.18 44.1199C62.84 41.9099 67.14 43.5799 67.14 47.2999V57.2099C67.14 60.9999 69.55 63.6099 72.84 63.6099H72.98C76.02 63.6099 78.64 61.5499 79.37 58.6199C79.86 56.5399 80.21 54.6099 80.21 53.2399C80.14 38.2599 67.47 26.8199 52.13 27.8599C39.2 28.7499 28.75 39.1999 27.85 52.1399C27.6 55.7199 28.09 59.3199 29.3 62.7099C30.5 66.0999 32.38 69.1999 34.84 71.8299C37.29 74.4499 40.26 76.5499 43.55 77.9799C46.85 79.4099 50.41 80.1499 54 80.1399V84.7899C49.77 84.7999 45.58 83.9299 41.7 82.2399C37.82 80.5599 34.33 78.0899 31.44 74.9999C28.55 71.9099 26.33 68.2599 24.91 64.2699C23.5 60.2799 22.92 56.0499 23.21 51.8199C24.27 36.5599 36.56 24.2699 51.81 23.2099C69.69 22.0099 84.78 35.4199 84.86 53.2199Z" fill="#3D3D3D"/>
</svg>
